<?xml version="1.0" encoding="UTF-8" standalone="no"?>
<!DOCTYPE svg PUBLIC "-//W3C//DTD SVG 1.1//EN" "http://www.w3.org/Graphics/SVG/1.1/DTD/svg11.dtd">
<svg version="1.1" xmlns="http://www.w3.org/2000/svg" xmlns:xlink="http://www.w3.org/1999/xlink" preserveAspectRatio="xMidYMid meet" viewBox="0 0 900 180" width="900" height="180"><defs><path d="M252.48 102.53C252.48 113.9 252.48 139 252.48 150.38C252.48 155.37 248.44 159.41 243.45 159.41C230.9 159.41 202.28 159.41 189.73 159.41C184.74 159.41 180.7 155.37 180.7 150.38C180.7 139 180.7 113.9 180.7 102.53C180.7 97.54 184.74 93.5 189.73 93.5C202.28 93.5 230.9 93.5 243.45 93.5C248.44 93.5 252.48 97.54 252.48 102.53Z" id="b1lh253gjE"></path><path d="M252.48 102.53C252.48 113.9 252.48 139 252.48 150.38C252.48 155.37 248.44 159.41 243.45 159.41C230.9 159.41 202.28 159.41 189.73 159.41C184.74 159.41 180.7 155.37 180.7 150.38C180.7 139 180.7 113.9 180.7 102.53C180.7 97.54 184.74 93.5 189.73 93.5C202.28 93.5 230.9 93.5 243.45 93.5C248.44 93.5 252.48 97.54 252.48 102.53Z" id="aTFlbw9mM"></path><path d="M168.96 102.53C168.96 113.9 168.96 139 168.96 150.38C168.96 155.37 164.92 159.41 159.94 159.41C147.39 159.41 118.77 159.41 106.22 159.41C101.23 159.41 97.19 155.37 97.19 150.38C97.19 139 97.19 113.9 97.19 102.53C97.19 97.54 101.23 93.5 106.22 93.5C118.77 93.5 147.39 93.5 159.94 93.5C164.92 93.5 168.96 97.54 168.96 102.53Z" id="byjDwsm6F"></path><path d="M168.96 102.53C168.96 113.9 168.96 139 168.96 150.38C168.96 155.37 164.92 159.41 159.94 159.41C147.39 159.41 118.77 159.41 106.22 159.41C101.23 159.41 97.19 155.37 97.19 150.38C97.19 139 97.19 113.9 97.19 102.53C97.19 97.54 101.23 93.5 106.22 93.5C118.77 93.5 147.39 93.5 159.94 93.5C164.92 93.5 168.96 97.54 168.96 102.53Z" id="e6J0Tnpo5"></path><path d="M87.71 102.53C87.71 113.9 87.71 139 87.71 150.38C87.71 155.37 83.66 159.41 78.68 159.41C66.13 159.41 37.51 159.41 24.96 159.41C19.97 159.41 15.93 155.37 15.93 150.38C15.93 139 15.93 113.9 15.93 102.53C15.93 97.54 19.97 93.5 24.96 93.5C37.51 93.5 66.13 93.5 78.68 93.5C83.66 93.5 87.71 97.54 87.71 102.53Z" id="g3ohAC1qTH"></path><path d="M87.71 102.53C87.71 113.9 87.71 139 87.71 150.38C87.71 155.37 83.66 159.41 78.68 159.41C66.13 159.41 37.51 159.41 24.96 159.41C19.97 159.41 15.93 155.37 15.93 150.38C15.93 139 15.93 113.9 15.93 102.53C15.93 97.54 19.97 93.5 24.96 93.5C37.51 93.5 66.13 93.5 78.68 93.5C83.66 93.5 87.71 97.54 87.71 102.53Z" id="b1B1JX86lf"></path><path d="M141.88 24.43C141.88 35.81 141.88 60.91 141.88 72.28C141.88 77.27 137.84 81.31 132.85 81.31C120.3 81.31 91.68 81.31 79.13 81.31C74.14 81.31 70.1 77.27 70.1 72.28C70.1 60.91 70.1 35.81 70.1 24.43C70.1 19.45 74.14 15.4 79.13 15.4C91.68 15.4 120.3 15.4 132.85 15.4C137.84 15.4 141.88 19.45 141.88 24.43Z" id="e2UOJ8LijK"></path><text id="a1dypM84Y" x="475.74" y="43" font-size="207" font-family="Montserrat" font-weight="700" font-style="normal" letter-spacing="0" alignment-baseline="before-edge" transform="matrix(1 0 0 1 -161.31600434365112 -149.32037799445334)" style="line-height:100%" xml:space="preserve" dominant-baseline="text-before-edge"><tspan x="475.74" dy="0em" alignment-baseline="before-edge" dominant-baseline="text-before-edge" text-anchor="start">　</tspan></text><style id="montserrat700normal">
    @font-face {
    font-family: "Montserrat";
    font-weight: 700;
    src: url("https://fonts.gstatic.com/s/montserrat/v7/IQHow_FEYlDC4Gzy_m8fcgJKKGfqHaYFsRG-T3ceEVo.ttf");
    }
    </style><text id="buswllfaS" x="475.74" y="43" font-size="207" font-family="Montserrat" font-weight="700" font-style="normal" letter-spacing="0" alignment-baseline="before-edge" transform="matrix(1 0 0 1 -211.31600434365112 -83.52037799445318)" style="line-height:100%" xml:space="preserve" dominant-baseline="text-before-edge"><tspan x="475.74" dy="0em" alignment-baseline="before-edge" dominant-baseline="text-before-edge" text-anchor="start">W</tspan></text><path d="M141.88 24.43C141.88 35.81 141.88 60.91 141.88 72.28C141.88 77.27 137.84 81.31 132.85 81.31C120.3 81.31 91.68 81.31 79.13 81.31C74.14 81.31 70.1 77.27 70.1 72.28C70.1 60.91 70.1 35.81 70.1 24.43C70.1 19.45 74.14 15.4 79.13 15.4C91.68 15.4 120.3 15.4 132.85 15.4C137.84 15.4 141.88 19.45 141.88 24.43Z" id="ap4GTH53m"></path><text id="aRW06UL5I" x="475.74" y="43" font-size="207" font-family="Montserrat" font-weight="700" font-style="normal" letter-spacing="0" alignment-baseline="before-edge" transform="matrix(1 0 0 1 -25.740000000000066 -83.52037799445318)" style="line-height:100%" xml:space="preserve" dominant-baseline="text-before-edge"><tspan x="475.74" dy="0em" alignment-baseline="before-edge" dominant-baseline="text-before-edge" text-anchor="start">ASD</tspan></text></defs><g><g><g><use xlink:href="#b1lh253gjE" opacity="1" fill="#3d5afe" fill-opacity="1"></use><g><use xlink:href="#b1lh253gjE" opacity="1" fill-opacity="0" stroke="#000000" stroke-width="1" stroke-opacity="0"></use></g></g><g><use xlink:href="#aTFlbw9mM" opacity="1" fill="#000000" fill-opacity="0"></use><g><use xlink:href="#aTFlbw9mM" opacity="1" fill-opacity="0" stroke="#222528" stroke-width="3" stroke-opacity="1"></use></g></g><g><use xlink:href="#byjDwsm6F" opacity="1" fill="#3d5afe" fill-opacity="1"></use><g><use xlink:href="#byjDwsm6F" opacity="1" fill-opacity="0" stroke="#000000" stroke-width="1" stroke-opacity="0"></use></g></g><g><use xlink:href="#e6J0Tnpo5" opacity="1" fill="#000000" fill-opacity="0"></use><g><use xlink:href="#e6J0Tnpo5" opacity="1" fill-opacity="0" stroke="#222528" stroke-width="3" stroke-opacity="1"></use></g></g><g><use xlink:href="#g3ohAC1qTH" opacity="1" fill="#fdd835" fill-opacity="1"></use><g><use xlink:href="#g3ohAC1qTH" opacity="1" fill-opacity="0" stroke="#000000" stroke-width="1" stroke-opacity="0"></use></g></g><g><use xlink:href="#b1B1JX86lf" opacity="1" fill="#000000" fill-opacity="0"></use><g><use xlink:href="#b1B1JX86lf" opacity="1" fill-opacity="0" stroke="#222528" stroke-width="3" stroke-opacity="1"></use></g></g><g><use xlink:href="#e2UOJ8LijK" opacity="1" fill="#fdd835" fill-opacity="1"></use><g><use xlink:href="#e2UOJ8LijK" opacity="1" fill-opacity="0" stroke="#000000" stroke-width="1" stroke-opacity="0"></use></g></g><g id="a6WRsXFwE8"><use xlink:href="#a1dypM84Y" opacity="1" fill="#222528" fill-opacity="0.97"></use></g><g id="g7tWQ2KaF"><use xlink:href="#buswllfaS" opacity="1" fill="#222528" fill-opacity="0.97"></use></g><g><use xlink:href="#ap4GTH53m" opacity="1" fill="#000000" fill-opacity="0"></use><g><use xlink:href="#ap4GTH53m" opacity="1" fill-opacity="0" stroke="#222528" stroke-width="3" stroke-opacity="1"></use></g></g><g id="a21rWEvD1s"><use xlink:href="#aRW06UL5I" opacity="1" fill="#222528" fill-opacity="0.97"></use></g></g></g></svg>