<svg id="wasd" xmlns="http://www.w3.org/2000/svg" viewBox="0 0 331 192"><title>wasd-notext-noopt</title><g id="keys"><g id="d"><path d="M289.92773,136.77539a9.55841,9.55841,0,0,0-4.873-1.24609h-6.166v19.67578h6.48242a9.136,9.136,0,0,0,4.73829-1.24707,8.66662,8.66662,0,0,0,3.2871-3.46778,10.67481,10.67481,0,0,0,1.17774-5.07812,10.46488,10.46488,0,0,0-1.2461-5.12305A8.96836,8.96836,0,0,0,289.92773,136.77539Z" style="fill:#3d53ff"/><path d="M320.334,101H250.666A10.69734,10.69734,0,0,0,240,111.666v69.668A10.69738,10.69738,0,0,0,250.666,192h69.668A10.69738,10.69738,0,0,0,331,181.334V111.666A10.69734,10.69734,0,0,0,320.334,101ZM299.7207,153.5957a14.88065,14.88065,0,0,1-6.00781,5.6211,18.67041,18.67041,0,0,1-8.79492,2.01758H271.72461V129.499h13.46484a18.21906,18.21906,0,0,1,8.66016,2.01758,14.62827,14.62827,0,0,1,5.916,5.62207,15.98968,15.98968,0,0,1,2.10743,8.22852A15.7436,15.7436,0,0,1,299.7207,153.5957Z" style="fill:#3d53ff"/></g><path d="M219.334,101H149.666A10.69734,10.69734,0,0,0,139,111.666v69.668A10.69738,10.69738,0,0,0,149.666,192h69.668A10.69738,10.69738,0,0,0,230,181.334V111.666A10.69734,10.69734,0,0,0,219.334,101Zm-23.3789,56.17676a9.92873,9.92873,0,0,1-4.41992,3.332,16.99971,16.99971,0,0,1-6.39258,1.13379,21.87086,21.87086,0,0,1-7.57227-1.36035,20.438,20.438,0,0,1-6.437-3.71778l2.856-5.84765a19.31947,19.31947,0,0,0,5.53125,3.49023,14.88027,14.88027,0,0,0,5.71191,1.31445,6.30227,6.30227,0,0,0,3.46875-.81543,2.85081,2.85081,0,0,0,.40821-4.375,6.45619,6.45619,0,0,0-2.13086-1.292q-1.292-.498-3.5586-1.13281a40.49076,40.49076,0,0,1-5.32812-1.81445,9.35036,9.35036,0,0,1-3.55811-2.76563,7.642,7.642,0,0,1-1.49609-4.9414,8.3814,8.3814,0,0,1,1.541-5.00977,9.77721,9.77721,0,0,1,4.30713-3.30859,16.5764,16.5764,0,0,1,6.4375-1.15625,22.29661,22.29661,0,0,1,6.43848.95117,21.82079,21.82079,0,0,1,5.62109,2.53906l-2.76562,5.93945a24.07342,24.07342,0,0,0-5.19141-2.38086,15.736,15.736,0,0,0-4.6914-.88281,5.52566,5.52566,0,0,0-2.94727.67969,2.20813,2.20813,0,0,0-1.08789,1.99414,2.79438,2.79438,0,0,0,1.56445,2.5625,24.19188,24.19188,0,0,0,4.82813,1.83594,41.72863,41.72863,0,0,1,5.37207,1.90429,9.52286,9.52286,0,0,1,3.60449,2.85547,7.91858,7.91858,0,0,1,1.49609,5.03223A8.62641,8.62641,0,0,1,195.95508,157.17676Z" style="fill:#3d53ff"/><g id="a"><path id="outer-a" d="M118.334,101H23a5,5,0,0,0,0,10H68a5,5,0,0,1,0,10H5a5,5,0,0,0,0,10H60a5,5,0,0,1,0,10H32.5a5.5,5.5,0,0,0,0,11H49a5,5,0,0,1,0,10H20a5,5,0,0,0,0,10H56a5,5,0,0,1,0,10H28a5,5,0,0,0,0,10h90.334A10.69738,10.69738,0,0,0,129,181.334V111.666A10.69734,10.69734,0,0,0,118.334,101ZM93.39111,161.23438l-2.49365-6.166H76.2085l-2.49317,6.166H66.3252L80.10742,129.499h7.39014l13.55517,31.73536Z" style="fill:#3d53ff"/><polygon id="inner-a" points="78.566 149.311 88.585 149.311 83.599 136.979 78.566 149.311" style="fill:#3d53ff"/></g><path id="w" d="M192.334,0H102a5,5,0,0,0,0,10h40a5,5,0,0,1,0,10H92a5,5,0,0,0,0,10h28a5,5,0,0,1,0,10H105.5a5.5,5.5,0,0,0,0,11H125a5,5,0,0,1,0,10H84a5,5,0,0,0,0,10h53a5,5,0,0,1,0,10H105a5,5,0,0,0,0,10h87.334A10.69738,10.69738,0,0,0,203,80.334V10.666A10.69734,10.69734,0,0,0,192.334,0ZM171.72021,60.23438h-7.38964L157.666,37.33984l-6.75489,22.89454h-7.34472L132.86719,28.499h7.707l6.89111,24.20948L154.311,28.499h7.02734l6.936,24.20948L175.0752,28.499h7.38964Z" style="fill:#3d53ff"/></g></svg>