<svg xmlns="http://www.w3.org/2000/svg" data-name="Layer 1" viewBox="0 0 534.26 277.018">
  <path fill="#3d53ff" d="M295.415 0h-90.334a5 5 0 0 0 0 10h40a5 5 0 0 1 0 10h-50a5 5 0 0 0 0 10h28a5 5 0 0 1 0 10h-14.5a5.5 5.5 0 0 0 0 11h19.5a5 5 0 0 1 0 10h-41a5 5 0 0 0 0 10h53a5 5 0 0 1 0 10h-32a5 5 0 0 0 0 10h87.334a10.697 10.697 0 0 0 10.666-10.666V10.666A10.697 10.697 0 0 0 295.415 0zm-20.614 60.234h-7.39l-6.664-22.894-6.755 22.894h-7.345L235.948 28.5h7.707l6.891 24.21 6.846-24.21h7.027l6.936 24.21 6.801-24.21h7.39zM221.415 101h-95.334a5 5 0 0 0 0 10h45a5 5 0 0 1 0 10h-63a5 5 0 0 0 0 10h55a5 5 0 0 1 0 10h-27.5a5.5 5.5 0 0 0 0 11h16.5a5 5 0 0 1 0 10h-29a5 5 0 0 0 0 10h36a5 5 0 0 1 0 10h-28a5 5 0 0 0 0 10h90.334a10.697 10.697 0 0 0 10.666-10.666v-69.668A10.697 10.697 0 0 0 221.415 101zm-24.943 60.234l-2.494-6.166H179.29l-2.493 6.166h-7.39l13.782-31.735h7.39l13.556 31.735z"/>
  <path fill="#3d53ff" d="M181.647 149.311h10.02l-4.987-12.332-5.033 12.332zM322.415 101h-69.668a10.697 10.697 0 0 0-10.666 10.666v69.668A10.697 10.697 0 0 0 252.747 192h69.668a10.697 10.697 0 0 0 10.666-10.666v-69.668A10.697 10.697 0 0 0 322.415 101zm-23.379 56.177a9.929 9.929 0 0 1-4.42 3.332 17 17 0 0 1-6.392 1.134 21.87 21.87 0 0 1-7.573-1.36 20.438 20.438 0 0 1-6.437-3.719l2.856-5.847a19.32 19.32 0 0 0 5.532 3.49 14.88 14.88 0 0 0 5.712 1.314 6.302 6.302 0 0 0 3.468-.815 2.85 2.85 0 0 0 .408-4.375 6.456 6.456 0 0 0-2.13-1.292q-1.292-.498-3.559-1.133a40.491 40.491 0 0 1-5.328-1.814 9.35 9.35 0 0 1-3.558-2.766 7.642 7.642 0 0 1-1.496-4.941 8.381 8.381 0 0 1 1.54-5.01 9.777 9.777 0 0 1 4.308-3.309 16.576 16.576 0 0 1 6.437-1.156 22.297 22.297 0 0 1 6.439.951 21.82 21.82 0 0 1 5.62 2.54l-2.765 5.939a24.073 24.073 0 0 0-5.191-2.381 15.736 15.736 0 0 0-4.692-.883 5.526 5.526 0 0 0-2.947.68 2.208 2.208 0 0 0-1.088 1.994 2.794 2.794 0 0 0 1.565 2.562 24.192 24.192 0 0 0 4.828 1.836 41.728 41.728 0 0 1 5.372 1.905 9.523 9.523 0 0 1 3.604 2.855 7.919 7.919 0 0 1 1.497 5.032 8.626 8.626 0 0 1-1.61 5.237zM393.009 136.775a9.558 9.558 0 0 0-4.873-1.246h-6.166v19.676h6.482a9.136 9.136 0 0 0 4.738-1.247 8.667 8.667 0 0 0 3.288-3.468 10.675 10.675 0 0 0 1.177-5.078 10.465 10.465 0 0 0-1.246-5.123 8.968 8.968 0 0 0-3.4-3.514z"/>
  <path fill="#3d53ff" d="M423.415 101h-69.668a10.697 10.697 0 0 0-10.666 10.666v69.668A10.697 10.697 0 0 0 353.747 192h69.668a10.697 10.697 0 0 0 10.666-10.666v-69.668A10.697 10.697 0 0 0 423.415 101zm-20.613 52.596a14.88 14.88 0 0 1-6.008 5.62 18.67 18.67 0 0 1-8.795 2.018h-13.193V129.5h13.465a18.22 18.22 0 0 1 8.66 2.018 14.628 14.628 0 0 1 5.916 5.622 15.99 15.99 0 0 1 2.107 8.228 15.744 15.744 0 0 1-2.152 8.229zM41.693 207.669h7.3L38.38 239.018h-7.3l-6.582-22.616-6.673 22.616h-7.255L0 207.669h7.613l6.807 23.915 6.763-23.915h6.941l6.852 23.915zM73.22 239.018l-2.462-6.091h-14.51l-2.463 6.09h-7.3L60.1 207.67h7.299l13.39 31.349zm-14.643-11.779h9.897l-4.926-12.18zM103.314 239.018l-4.97-8.957h-7.21v8.957h-7.076v-31.349h13.614q6.135 0 9.494 2.844a9.956 9.956 0 0 1 3.358 8.039 12.118 12.118 0 0 1-1.5 6.202 9.635 9.635 0 0 1-4.366 3.919l6.673 10.345zm-12.18-14.869h6.538a6.774 6.774 0 0 0 4.545-1.366 4.993 4.993 0 0 0 1.59-4.008 4.803 4.803 0 0 0-1.59-3.918 6.933 6.933 0 0 0-4.545-1.32h-6.539zM154.413 207.669h7.3l-10.614 31.349h-7.3l-6.583-22.616-6.673 22.616h-7.255l-10.569-31.349h7.614l6.807 23.915 6.762-23.915h6.941l6.852 23.915zM165.16 207.669h7.076v31.349h-7.076zM198.098 214.454a9.605 9.605 0 0 0-4.367-1.098 9.395 9.395 0 0 0-8.285 4.837 10 10 0 0 0-1.254 4.971 10.12 10.12 0 0 0 1.254 4.993 9.444 9.444 0 0 0 3.449 3.583 9.195 9.195 0 0 0 4.836 1.322 10.111 10.111 0 0 0 4.277-1.008 13.435 13.435 0 0 0 3.874-2.71l4.165 4.523a18.858 18.858 0 0 1-5.89 4.12 16.39 16.39 0 0 1-6.784 1.523 16.706 16.706 0 0 1-8.374-2.127 15.537 15.537 0 0 1-5.912-5.844 16.25 16.25 0 0 1-2.15-8.285 15.644 15.644 0 0 1 8.218-13.973 17.331 17.331 0 0 1 8.487-2.104 17.685 17.685 0 0 1 12.36 5.239l-4.12 5.06a11.9 11.9 0 0 0-3.784-3.022zM239.32 239.018h-8.464l-9.046-12.853-4.478 4.97v7.883h-7.076v-31.349h7.076v14.6l12.986-14.6h8.24l-11.822 13.032zM247.47 206.729a3.365 3.365 0 0 1 .986 2.552 3.772 3.772 0 0 1-.225 1.322 12.616 12.616 0 0 1-.671 1.455l-3.18 5.687h-3.359l2.105-5.642a3.124 3.124 0 0 1-1.478-2.822 3.397 3.397 0 0 1 .986-2.508 3.519 3.519 0 0 1 4.837-.044zM269.168 214.05a15.545 15.545 0 0 0-4.635-.872 5.453 5.453 0 0 0-2.91.672 2.18 2.18 0 0 0-1.076 1.97 2.76 2.76 0 0 0 1.545 2.53 23.802 23.802 0 0 0 4.77 1.814 41.193 41.193 0 0 1 5.306 1.88 9.41 9.41 0 0 1 3.56 2.822 7.818 7.818 0 0 1 1.478 4.97 8.52 8.52 0 0 1-1.59 5.174 9.792 9.792 0 0 1-4.366 3.29 16.778 16.778 0 0 1-6.314 1.12 21.61 21.61 0 0 1-7.479-1.343 20.177 20.177 0 0 1-6.36-3.672l2.822-5.777a19.061 19.061 0 0 0 5.464 3.448 14.7 14.7 0 0 0 5.642 1.299 6.213 6.213 0 0 0 3.426-.807 2.815 2.815 0 0 0 .404-4.32 6.377 6.377 0 0 0-2.105-1.277q-1.277-.492-3.516-1.12a39.898 39.898 0 0 1-5.262-1.791 9.24 9.24 0 0 1-3.515-2.732 7.552 7.552 0 0 1-1.478-4.88 8.286 8.286 0 0 1 1.522-4.95 9.663 9.663 0 0 1 4.255-3.269 16.38 16.38 0 0 1 6.36-1.142 22.026 22.026 0 0 1 6.359.94 21.528 21.528 0 0 1 5.552 2.508l-2.731 5.867a23.806 23.806 0 0 0-5.128-2.351zM315.809 239.018l-2.463-6.091h-14.511l-2.463 6.09h-7.3l13.615-31.348h7.3l13.39 31.349zm-14.645-11.779h9.898l-4.927-12.18zM362.518 207.669h7.3l-10.615 31.349h-7.299l-6.584-22.616-6.672 22.616h-7.254l-10.57-31.349h7.614l6.806 23.915 6.763-23.915h6.941l6.852 23.915zM373.265 207.669h23.869v5.867H380.34v6.807h15.092v5.867H380.34v6.941h17.286v5.867h-24.362zM418.697 214.05a15.545 15.545 0 0 0-4.634-.872 5.453 5.453 0 0 0-2.912.672 2.18 2.18 0 0 0-1.075 1.97 2.76 2.76 0 0 0 1.545 2.53 23.802 23.802 0 0 0 4.77 1.814 41.192 41.192 0 0 1 5.306 1.88 9.41 9.41 0 0 1 3.56 2.822 7.818 7.818 0 0 1 1.478 4.97 8.52 8.52 0 0 1-1.59 5.174 9.792 9.792 0 0 1-4.366 3.29 16.778 16.778 0 0 1-6.314 1.12 21.61 21.61 0 0 1-7.479-1.343 20.177 20.177 0 0 1-6.36-3.672l2.822-5.777a19.061 19.061 0 0 0 5.464 3.448 14.7 14.7 0 0 0 5.643 1.299 6.213 6.213 0 0 0 3.425-.807 2.815 2.815 0 0 0 .404-4.32 6.377 6.377 0 0 0-2.105-1.277q-1.277-.492-3.515-1.12a39.898 39.898 0 0 1-5.263-1.791 9.24 9.24 0 0 1-3.515-2.732 7.552 7.552 0 0 1-1.478-4.88 8.286 8.286 0 0 1 1.522-4.95 9.663 9.663 0 0 1 4.255-3.269 16.38 16.38 0 0 1 6.36-1.142 22.026 22.026 0 0 1 6.359.94 21.529 21.529 0 0 1 5.553 2.508l-2.732 5.867a23.806 23.806 0 0 0-5.128-2.351zM454.86 209.281a16.015 16.015 0 0 1 0 28.102 18.263 18.263 0 0 1-17.108 0 15.784 15.784 0 0 1-8.285-14.084 15.754 15.754 0 0 1 8.262-14.018 18.481 18.481 0 0 1 17.13 0zm-13.301 5.397a9.645 9.645 0 0 0-3.538 3.605 10.161 10.161 0 0 0 3.56 13.703 9.12 9.12 0 0 0 4.815 1.344 9.004 9.004 0 0 0 4.768-1.321 9.58 9.58 0 0 0 3.448-3.627 10.314 10.314 0 0 0 1.277-5.083 10.1 10.1 0 0 0-1.277-5.016 9.641 9.641 0 0 0-3.448-3.605 9.013 9.013 0 0 0-4.768-1.322 9.36 9.36 0 0 0-4.837 1.322zM467.802 207.669h7.882l9.762 19.257 9.674-19.257h7.837v31.349h-6.36v-21.183l-8.911 18.003h-4.568l-8.957-18.003v21.183h-6.36zM509.897 207.669h23.87v5.867h-16.793v6.807h15.091v5.867h-15.091v6.941h17.286v5.867h-24.363zM99.356 270.898a7.601 7.601 0 0 1-7.173 6.12H79.604l2.142-4.488h11.117a2.138 2.138 0 0 0 2.006-1.7l.204-1.326a1.37 1.37 0 0 0-1.394-1.7h-6.357a5.008 5.008 0 0 1-5.032-6.118l.272-1.497a7.638 7.638 0 0 1 7.208-6.119h10.878l-2.175 4.522H89.02a2.131 2.131 0 0 0-2.005 1.699l-.204 1.292a1.386 1.386 0 0 0 1.394 1.7h6.391a5.007 5.007 0 0 1 5.031 6.12zM121.66 263.997v.102a7.7 7.7 0 0 1-7.207 6.017h-6.323l2.176-4.521h4.861a2.102 2.102 0 0 0 2.006-1.7l.612-3.604a1.37 1.37 0 0 0-1.394-1.7h-7.99l-3.23 18.427h-4.486l4.045-22.948h12.58a4.97 4.97 0 0 1 5.03 6.017v.102zm0 .102zm.68-3.91zM140.836 263.283l-.815 4.522H128.53l-.51 3.025a1.399 1.399 0 0 0 1.394 1.7h9.79l-.781 4.488h-9.86a5.03 5.03 0 0 1-5.065-6.12l1.904-10.709a7.638 7.638 0 0 1 7.207-6.119h9.86l-2.177 4.522h-8.43a2.131 2.131 0 0 0-2.007 1.699l-.918 5.27 2.686-2.278zM160.046 263.283l-.816 4.522h-11.49l-.51 3.025a1.398 1.398 0 0 0 1.393 1.7h9.791l-.782 4.488h-9.859a5.03 5.03 0 0 1-5.065-6.12l1.903-10.709a7.638 7.638 0 0 1 7.208-6.119h9.859l-2.176 4.522h-8.431a2.131 2.131 0 0 0-2.006 1.699l-.918 5.27 2.686-2.278zM181.431 260.19l-1.904 10.708a7.601 7.601 0 0 1-7.173 6.12h-11.49l4.045-22.948h11.49a5.007 5.007 0 0 1 5.032 6.12zm-4.556.101a1.37 1.37 0 0 0-1.393-1.7h-6.901l-2.074 11.695-2.584 2.244h9.111a2.138 2.138 0 0 0 2.006-1.7zM195.916 277.018l-2.788-6.902h-3.978l2.176-4.521h4.861a2.102 2.102 0 0 0 2.006-1.7l.612-3.604a1.37 1.37 0 0 0-1.393-1.7h-7.99l-3.23 18.427h-4.487l4.045-22.948h12.58a4.97 4.97 0 0 1 5.03 6.017v.102l-.679 3.808v.102a7.767 7.767 0 0 1-4.59 5.473l3.026 7.446zm6.765-12.92zm.68-3.909zM221.89 270.898a7.601 7.601 0 0 1-7.173 6.12h-4.759a5.03 5.03 0 0 1-5.066-6.12l2.992-16.828h4.488l-2.958 16.76a1.398 1.398 0 0 0 1.394 1.7h4.59a2.137 2.137 0 0 0 2.005-1.7l2.958-16.76h4.52zM241.747 277.018h-4.522l-6.154-14.279-2.515 14.279h-4.488l4.046-22.948h4.488l6.119 14.279 2.55-14.279h4.521l-3.842 21.69zM264.73 270.898a7.601 7.601 0 0 1-7.173 6.12h-12.58l2.142-4.488h11.117a2.137 2.137 0 0 0 2.006-1.7l.204-1.326a1.37 1.37 0 0 0-1.394-1.7h-6.358a5.008 5.008 0 0 1-5.03-6.118l.272-1.497a7.636 7.636 0 0 1 7.207-6.119h10.878l-2.175 4.522h-9.451a2.131 2.131 0 0 0-2.006 1.699l-.204 1.292a1.386 1.386 0 0 0 1.394 1.7h6.39a5.008 5.008 0 0 1 5.033 6.12zM294.955 277.018h-4.521l1.189-6.902h-7.99l2.177-4.521h6.63l.917-5.304a1.37 1.37 0 0 0-1.394-1.7h-6.29a2.131 2.131 0 0 0-2.005 1.7l-2.924 16.727h-4.487l2.958-16.829a7.636 7.636 0 0 1 7.207-6.119h6.459a5.008 5.008 0 0 1 5.032 6.12zM315.864 277.018h-4.521l-6.154-14.279-2.515 14.279h-4.487l4.045-22.948h4.488l6.119 14.279 2.55-14.279h4.521l-3.842 21.69zM339.665 260.19l-1.904 10.708a7.601 7.601 0 0 1-7.173 6.12h-11.491l4.046-22.948h11.49a5.008 5.008 0 0 1 5.032 6.12zm-4.556.101a1.37 1.37 0 0 0-1.394-1.7h-6.902l-2.073 11.695-2.584 2.244h9.112a2.137 2.137 0 0 0 2.005-1.7zM370.706 260.19l-1.904 10.708a7.601 7.601 0 0 1-7.173 6.12h-11.491l4.046-22.948h11.49a5.008 5.008 0 0 1 5.032 6.12zm-4.556.101a1.37 1.37 0 0 0-1.394-1.7h-6.902l-2.073 11.695-2.584 2.244h9.112a2.137 2.137 0 0 0 2.005-1.7zM389.372 263.283l-.816 4.522h-11.492l-.51 3.025a1.4 1.4 0 0 0 1.395 1.7h9.791l-.782 4.488h-9.86a5.03 5.03 0 0 1-5.065-6.12l1.904-10.709a7.636 7.636 0 0 1 7.207-6.119h9.86l-2.176 4.522h-8.432a2.131 2.131 0 0 0-2.005 1.699l-.918 5.27 2.685-2.278zM415.245 254.07l-4.046 22.948h-4.487l2.516-14.279-5.541 7.037h-3.468l-3.027-7.037-2.515 14.279h-4.488l4.046-22.948h4.488l4.249 9.893 7.786-9.893zM435.407 260.19l-1.903 10.708a7.601 7.601 0 0 1-7.174 6.12h-5.78a5.03 5.03 0 0 1-5.065-6.12l1.905-10.709a7.637 7.637 0 0 1 7.207-6.119h5.779a5.007 5.007 0 0 1 5.031 6.12zm-4.555.101a1.37 1.37 0 0 0-1.394-1.7h-5.61a2.131 2.131 0 0 0-2.005 1.7l-1.836 10.54a1.4 1.4 0 0 0 1.394 1.7h5.61a2.138 2.138 0 0 0 2.006-1.7zM455.434 270.898a7.601 7.601 0 0 1-7.173 6.12h-12.58l2.142-4.488h11.117a2.137 2.137 0 0 0 2.006-1.7l.204-1.326a1.37 1.37 0 0 0-1.394-1.7h-6.358a5.008 5.008 0 0 1-5.03-6.118l.272-1.497a7.637 7.637 0 0 1 7.207-6.119h10.879l-2.176 4.522h-9.451a2.131 2.131 0 0 0-2.006 1.699l-.204 1.292a1.386 1.386 0 0 0 1.394 1.7h6.39a5.008 5.008 0 0 1 5.033 6.12z"/>
</svg>
